<svg xmlns="http://www.w3.org/2000/svg" width="32" height="32" viewBox="0 0 32 32"><path fill-rule="evenodd" d="M29.8 11.2c.2.5.1 1.1-.3 1.4l-2.4 2.2q.1.7.1 1.4t-.1 1.4l2.4 2.2c.4.3.5.9.3 1.4q-.3.9-.9 1.9l-.2.4q-.6.9-1.2 1.7c-.4.4-.9.6-1.4.4l-3.1-1q-1.1.9-2.4 1.4l-.7 3.2c-.1.5-.5.9-1 1q-1.2.2-2.4.2t-2.4-.2c-.5-.1-.9-.5-1-1l-.7-3.2q-1.3-.5-2.4-1.4l-3.1 1c-.5.2-1 0-1.4-.4q-.6-.8-1.2-1.7l-.2-.4q-.6-1-.9-1.9c-.2-.5-.1-1.1.3-1.4l2.4-2.2q-.1-.7-.1-1.4t.1-1.4l-2.4-2.2c-.4-.3-.5-.9-.3-1.4q.3-1 .9-1.9l.2-.4q.6-.9 1.2-1.7c.4-.4.9-.6 1.4-.4l3.1 1q1.1-.9 2.4-1.4l.7-3.2c.1-.5.5-.9 1-1q1.2-.2 2.4-.2t2.4.2c.5.1.9.5 1 1l.7 3.1q1.3.6 2.4 1.5l3.1-1c.5-.2 1 0 1.4.4q.6.8 1.2 1.7l.3.4q.5.9.8 1.9m-10.9 7.1c2.5 0 4.6-2.1 4.6-4.7 0-2.5-2.1-4.6-4.6-4.6-2.6 0-4.7 2.1-4.7 4.6q0 .8.2 1.5l-4.2 4.2q-.2.2-.2.5v2.1c0 .3.3.6.6.6h2.1c.4 0 .7-.3.7-.6v-1.1h1c.4 0 .7-.3.7-.6v-1.1h1q.3 0 .5-.2l.8-.8q.7.2 1.5.2m1-6.8c.3 0 .6.1.8.3s.3.5.3.8-.1.5-.3.7-.5.3-.8.3-.5-.1-.7-.3-.3-.4-.3-.7.1-.6.3-.8.4-.3.7-.3" style="fill:#124"/></svg>
